<mxfile host="65bd71144e">
    <diagram id="eBLj1lRn6UYE3inc8pBK" name="Page-1">
        <mxGraphModel dx="1308" dy="907" grid="1" gridSize="10" guides="1" tooltips="1" connect="1" arrows="1" fold="1" page="1" pageScale="1" pageWidth="850" pageHeight="1100" math="0" shadow="0">
            <root>
                <mxCell id="0"/>
                <mxCell id="1" parent="0"/>
                <mxCell id="18" value="in_stock" style="ellipse;whiteSpace=wrap;html=1;align=center;dashed=1;" vertex="1" parent="1">
                    <mxGeometry x="430" y="760" width="100" height="40" as="geometry"/>
                </mxCell>
                <mxCell id="19" value="BEVERAGE" style="whiteSpace=wrap;html=1;align=center;" vertex="1" parent="1">
                    <mxGeometry x="40" y="560" width="100" height="40" as="geometry"/>
                </mxCell>
                <mxCell id="20" value="name" style="ellipse;whiteSpace=wrap;html=1;align=center;" vertex="1" parent="1">
                    <mxGeometry x="-40" y="360" width="100" height="40" as="geometry"/>
                </mxCell>
                <mxCell id="h6sXgx3f2ig4v7rKi6Yk-26" style="edgeStyle=none;html=1;endArrow=none;endFill=0;" edge="1" parent="1" source="h6sXgx3f2ig4v7rKi6Yk-20" target="h6sXgx3f2ig4v7rKi6Yk-25">
                    <mxGeometry relative="1" as="geometry"/>
                </mxCell>
                <mxCell id="h6sXgx3f2ig4v7rKi6Yk-27" style="edgeStyle=none;html=1;endArrow=none;endFill=0;" edge="1" parent="1" source="h6sXgx3f2ig4v7rKi6Yk-20" target="h6sXgx3f2ig4v7rKi6Yk-24">
                    <mxGeometry relative="1" as="geometry"/>
                </mxCell>
                <mxCell id="h6sXgx3f2ig4v7rKi6Yk-28" style="edgeStyle=none;html=1;endArrow=none;endFill=0;" edge="1" parent="1" source="h6sXgx3f2ig4v7rKi6Yk-20" target="h6sXgx3f2ig4v7rKi6Yk-22">
                    <mxGeometry relative="1" as="geometry"/>
                </mxCell>
                <mxCell id="h6sXgx3f2ig4v7rKi6Yk-29" style="edgeStyle=none;html=1;endArrow=none;endFill=0;" edge="1" parent="1" source="h6sXgx3f2ig4v7rKi6Yk-20" target="h6sXgx3f2ig4v7rKi6Yk-21">
                    <mxGeometry relative="1" as="geometry"/>
                </mxCell>
                <mxCell id="h6sXgx3f2ig4v7rKi6Yk-20" value="User" style="whiteSpace=wrap;html=1;align=center;" vertex="1" parent="1">
                    <mxGeometry x="870" y="420" width="100" height="40" as="geometry"/>
                </mxCell>
                <mxCell id="h6sXgx3f2ig4v7rKi6Yk-21" value="_id" style="ellipse;whiteSpace=wrap;html=1;align=center;" vertex="1" parent="1">
                    <mxGeometry x="960" y="330" width="100" height="40" as="geometry"/>
                </mxCell>
                <mxCell id="h6sXgx3f2ig4v7rKi6Yk-22" value="name" style="ellipse;whiteSpace=wrap;html=1;align=center;" vertex="1" parent="1">
                    <mxGeometry x="1040" y="425" width="100" height="40" as="geometry"/>
                </mxCell>
                <mxCell id="21" value="producer" style="ellipse;whiteSpace=wrap;html=1;align=center;" vertex="1" parent="1">
                    <mxGeometry x="230" y="240" width="100" height="40" as="geometry"/>
                </mxCell>
                <mxCell id="h6sXgx3f2ig4v7rKi6Yk-24" value="roll" style="ellipse;whiteSpace=wrap;html=1;align=center;" vertex="1" parent="1">
                    <mxGeometry x="980" y="500" width="100" height="40" as="geometry"/>
                </mxCell>
                <mxCell id="22" value="country" style="ellipse;whiteSpace=wrap;html=1;align=center;" vertex="1" parent="1">
                    <mxGeometry x="410" y="210" width="100" height="40" as="geometry"/>
                </mxCell>
                <mxCell id="h6sXgx3f2ig4v7rKi6Yk-25" value="password" style="ellipse;whiteSpace=wrap;html=1;align=center;" vertex="1" parent="1">
                    <mxGeometry x="810" y="530" width="100" height="40" as="geometry"/>
                </mxCell>
                <mxCell id="23" value="region" style="ellipse;whiteSpace=wrap;html=1;align=center;" vertex="1" parent="1">
                    <mxGeometry x="530" y="210" width="100" height="40" as="geometry"/>
                </mxCell>
                <mxCell id="24" value="id" style="ellipse;whiteSpace=wrap;html=1;align=center;fontStyle=4;" vertex="1" parent="1">
                    <mxGeometry x="-120" y="480" width="100" height="40" as="geometry"/>
                </mxCell>
                <mxCell id="25" value="stock_amount" style="ellipse;whiteSpace=wrap;html=1;align=center;" vertex="1" parent="1">
                    <mxGeometry x="310" y="760" width="100" height="40" as="geometry"/>
                </mxCell>
                <mxCell id="26" value="price" style="ellipse;whiteSpace=wrap;html=1;align=center;" vertex="1" parent="1">
                    <mxGeometry x="160" y="510" width="100" height="40" as="geometry"/>
                </mxCell>
                <mxCell id="27" value="a_b_v" style="ellipse;whiteSpace=wrap;html=1;align=center;" vertex="1" parent="1">
                    <mxGeometry x="160" y="670" width="100" height="40" as="geometry"/>
                </mxCell>
                <mxCell id="28" value="volume" style="ellipse;whiteSpace=wrap;html=1;align=center;" vertex="1" parent="1">
                    <mxGeometry x="550" y="360" width="100" height="40" as="geometry"/>
                </mxCell>
                <mxCell id="29" value="description" style="ellipse;whiteSpace=wrap;html=1;align=center;" vertex="1" parent="1">
                    <mxGeometry x="160" y="465" width="100" height="40" as="geometry"/>
                </mxCell>
                <mxCell id="30" value="shelf_store" style="ellipse;whiteSpace=wrap;html=1;align=center;" vertex="1" parent="1">
                    <mxGeometry x="190" y="710" width="100" height="40" as="geometry"/>
                </mxCell>
                <mxCell id="31" value="year" style="ellipse;whiteSpace=wrap;html=1;align=center;" vertex="1" parent="1">
                    <mxGeometry x="160" y="420" width="100" height="40" as="geometry"/>
                </mxCell>
                <mxCell id="32" value="shelf_stock" style="ellipse;whiteSpace=wrap;html=1;align=center;" vertex="1" parent="1">
                    <mxGeometry x="190" y="760" width="100" height="40" as="geometry"/>
                </mxCell>
                <mxCell id="33" value="shelf_amount" style="ellipse;whiteSpace=wrap;html=1;align=center;" vertex="1" parent="1">
                    <mxGeometry x="310" y="710" width="100" height="40" as="geometry"/>
                </mxCell>
                <mxCell id="35" value="on_shelf" style="ellipse;whiteSpace=wrap;html=1;align=center;dashed=1;" vertex="1" parent="1">
                    <mxGeometry x="430" y="710" width="100" height="40" as="geometry"/>
                </mxCell>
            </root>
        </mxGraphModel>
    </diagram>
</mxfile>